# xmcd CD database file
#
# Track frame offsets:
#	150
#	9922
#	18974
#	31022
#	41757
#	49651
#	60130
#	72343
#	83112
#	93425
#	105399
#	115649
#	124652
#	133770
#	142748
#
# Disc length: 2057 seconds
#
# Revision: 0
# Processed by: cddbd v1.5.2PL0 Copyright (c) Steve Scherf et al.
# Submitted via: CDex 1.51
#
DISCID=ad08070f
DTITLE=Reverend Elvis - Death Country
DYEAR=2008
DGENRE=Country
TTITLE0=Long Black Devils Train
TTITLE1=NecroBaby
TTITLE2=Love and Hate
TTITLE3=I Go My Way
TTITLE4=Rock A Billy
TTITLE5=Black
TTITLE6=Die Alone
TTITLE7=You Are Dead Before You Died
TTITLE8=KillerWolf
TTITLE9=Strange
TTITLE10=LoveSick Blues
TTITLE11=Going Down (Straight to Hell)
TTITLE12=Swing Low
TTITLE13=Let's Do It Right Now
TTITLE14=Surrender
EXTD=YEAR: 2008
EXTT0=
EXTT1=
EXTT2=
EXTT3=
EXTT4=
EXTT5=
EXTT6=
EXTT7=
EXTT8=
EXTT9=
EXTT10=
EXTT11=
EXTT12=
EXTT13=
EXTT14=
PLAYORDER=
